<?xml version="1.0" encoding="utf-8"?>
<!-- Generator: Adobe Illustrator 15.1.0, SVG Export Plug-In . SVG Version: 6.00 Build 0)  -->
<!DOCTYPE svg PUBLIC "-//W3C//DTD SVG 1.1//EN" "http://www.w3.org/Graphics/SVG/1.1/DTD/svg11.dtd">
<svg version="1.1" id="レイヤー_1" xmlns="http://www.w3.org/2000/svg" xmlns:xlink="http://www.w3.org/1999/xlink" x="0px"
	 y="0px" width="198.632px" height="25.131px" viewBox="0 0 198.632 25.131" enable-background="new 0 0 198.632 25.131"
	 xml:space="preserve">
<path d="M57.029,17.942c0,0,1.573-1.781,2.179-4.682l-5.344-0.947l0.114-2.104l11.068,1.023l-0.303,3.013l-3.26-0.587
	c-0.057,1.497-0.322,3.81-1.365,5.686L57.029,17.942z M64.363,7.443l-0.227,3.07L54.66,8.447l0.228-2.123L64.363,7.443z"/>
<path d="M75.256,12.427h-6.235l-0.095-1.706l9.855-0.682c0,0-0.436,4.794-6.178,9.399l-2.142-2.142
	C70.461,17.297,72.887,15.458,75.256,12.427z M77.227,5.699l-0.17,3.223L69.04,7.215V5.642L77.227,5.699z"/>
<path d="M88.331,6.287l1.896,0.625c0,0-0.417,8.699-5.818,12.565l-3.127-2.331C81.281,17.146,86.796,14.076,88.331,6.287z"/>
<path d="M112.551,7.802c0,0-0.284,6.481-3.639,10.803l-3.07-1.876c0,0,2.293-2.18,3.354-6.425l-7.221-0.284l-0.038-1.914
	L112.551,7.802z M115.753,5.472c0,1.27-1.004,2.273-2.273,2.273c-1.251,0-2.274-1.004-2.274-2.273c0-1.252,1.023-2.275,2.274-2.275
	C114.749,3.197,115.753,4.22,115.753,5.472z M114.729,5.472c0-0.683-0.549-1.232-1.25-1.232c-0.683,0-1.232,0.55-1.232,1.232
	c0,0.682,0.55,1.25,1.232,1.25C114.181,6.722,114.729,6.154,114.729,5.472z"/>
<path d="M128.969,16.179l-6.747,0.303l0.114,0.437L119,17.126l-1.251-9.551l2.256-0.152l0.227,0.929l8.244,0.322L128.969,16.179z
	 M126.201,13.526l-0.113-2.426l-5.345-0.701l0.929,3.79L126.201,13.526z"/>
<path d="M139.103,19.723l-2.938-1.308c0,0,1.251-1.63,2.218-4.775l-2.236-1.934l0.739-1.364l2.122,0.777
	c0.114-0.683,0.228-1.384,0.304-2.142l-2.748-0.607l-1.156,5.496l-2.956-1.193l2.729-7.467l1.933,0.512l-0.17,0.777l4.775,0.529
	C141.718,7.025,141.832,14.549,139.103,19.723z M142.021,7.197l-0.455-2.862l1.137-0.341l0.815,2.842L142.021,7.197z M144.75,3.671
	l0.815,2.843l-1.497,0.379l-0.455-2.862L144.75,3.671z"/>
<path d="M150.502,13.26l-2.881-1.44l3.184-6.822l2.028,0.588l-0.152,0.512l4.644,0.947c0,0-1.687,8.13-4.491,12.072l-2.899-1.422
	c0,0,2.899-3.524,4.264-8.584l-2.16-0.873L150.502,13.26z"/>
<path d="M166.619,13.564l-5.173-2.198l0.512-2.009l5.515,1.421L166.619,13.564z M167.245,9.945l-5.686-1.839l0.512-2.065
	l5.742,1.117L167.245,9.945z M173.139,9.508l1.27,1.384c0,0-2.975,5.477-9.039,8.357l-1.819-3.07
	C163.55,16.179,168.666,14.587,173.139,9.508z"/>
<path d="M181.175,15.99l-0.171-0.872l-3.203-0.55l-0.208-1.364c0.208-0.075,1.971,0,3.07,0.057l-0.171-1.042l-3.449-0.645
	l-0.095-1.383l5.78,0.189l0.151,5.59h0.398l-0.038,2.294l-5.383-0.759l-0.095-1.478L181.175,15.99z"/>
<path d="M191.127,12.597l-4.699-3.771l1.155-1.668l5.288,2.199L191.127,12.597z M197.211,10.058l1.421,1.63
	c0,0-3.449,4.643-9.438,7.106l-1.648-3.127C187.546,15.667,193.724,13.886,197.211,10.058z"/>
<ellipse fill="#E60012" cx="7.047" cy="12.901" rx="7.047" ry="6.451"/>
<ellipse fill="#00A0E9" cx="18.325" cy="19.126" rx="3.384" ry="3.098"/>
<ellipse fill="#A40B5D" cx="36.067" cy="2.446" rx="2.671" ry="2.445"/>
<ellipse fill="#009944" cx="22.331" cy="5.671" rx="6.065" ry="5.552"/>
<ellipse fill="#FFF100" cx="32.563" cy="17.58" rx="8.25" ry="7.552"/>
</svg>
